<?xml version="1.0" standalone="no"?>
<!DOCTYPE svg PUBLIC "-//W3C//DTD SVG 20010904//EN"
 "http://www.w3.org/TR/2001/REC-SVG-20010904/DTD/svg10.dtd">
<svg version="1.0" xmlns="http://www.w3.org/2000/svg"
 width="251.000000pt" height="251.000000pt" viewBox="0 0 251.000000 251.000000"
 preserveAspectRatio="xMidYMid meet">
<metadata>
Created by potrace 1.11, written by Peter Selinger 2001-2013
</metadata>
<g transform="translate(0.000000,251.000000) scale(0.100000,-0.100000)"
fill="#000000" stroke="none">
<path d="M315 1841 c-104 -54 -129 -199 -48 -283 57 -60 138 -74 213 -35 123
62 132 226 18 310 -41 30 -131 34 -183 8z"/>
<path d="M1398 1505 c-186 -50 -309 -202 -322 -395 -9 -130 35 -250 124 -337
52 -50 128 -95 186 -109 59 -15 204 -13 256 3 55 16 131 62 186 111 l33 30
-59 61 c-32 34 -60 61 -64 61 -3 0 -23 -16 -43 -35 -21 -19 -59 -42 -85 -50
-190 -63 -353 64 -337 262 17 218 268 305 441 153 l34 -30 57 65 58 66 -24 26
c-34 37 -116 88 -174 108 -62 22 -204 27 -267 10z"/>
<path d="M13 1486 c3 -7 69 -122 146 -256 l141 -243 0 -163 0 -164 95 0 95 0
0 164 0 164 72 123 c39 68 79 138 89 154 11 17 22 37 26 45 3 8 16 31 28 50
30 48 75 130 75 135 0 3 -46 5 -102 5 l-103 0 -86 -148 c-47 -81 -89 -147 -95
-146 -5 1 -47 67 -94 147 l-85 147 -104 0 c-83 0 -102 -3 -98 -14z"/>
<path d="M830 1080 l0 -420 95 0 95 0 0 420 0 420 -95 0 -95 0 0 -420z"/>
<path d="M1930 1080 l0 -420 95 0 95 0 0 165 0 165 185 0 185 0 0 80 0 80
-185 0 -185 0 0 95 0 95 195 0 195 0 0 80 0 80 -290 0 -290 0 0 -420z"/>
</g>
</svg>
