<?xml version="1.0" standalone="no"?>
<!DOCTYPE svg PUBLIC "-//W3C//DTD SVG 20010904//EN"
 "http://www.w3.org/TR/2001/REC-SVG-20010904/DTD/svg10.dtd">
<svg version="1.0" xmlns="http://www.w3.org/2000/svg"
 width="400.000000pt" height="400.000000pt" viewBox="0 0 400.000000 400.000000"
 preserveAspectRatio="xMidYMid meet">
<metadata>
Created by potrace 1.11, written by Peter Selinger 2001-2013
</metadata>
<g transform="translate(0.000000,400.000000) scale(0.100000,-0.100000)"
fill="#000000" stroke="none">
<path d="M231 3786 c-53 -29 -50 69 -51 -1799 0 -1890 -3 -1779 55 -1805 20
-9 437 -12 1761 -12 1887 0 1776 -3 1802 55 17 38 17 3482 0 3520 -26 58 85
55 -1805 55 -1423 -1 -1742 -3 -1762 -14z m1810 -263 c187 -59 314 -232 314
-428 -2 -285 -275 -499 -549 -430 -140 35 -237 117 -302 252 -36 73 -36 74
-32 191 3 104 7 124 32 177 32 66 144 187 192 206 106 42 134 48 210 49 50 0
103 -7 135 -17z m-430 -1134 c85 -144 168 -285 184 -313 64 -110 100 -166 107
-166 6 0 121 188 172 280 10 19 34 59 52 88 19 29 34 55 34 58 0 4 20 38 77
130 30 47 89 151 95 167 7 16 29 17 263 17 175 0 255 -3 255 -11 0 -9 -86
-161 -169 -299 -11 -19 -24 -42 -28 -50 -4 -8 -43 -75 -86 -150 -104 -177
-248 -425 -306 -525 -25 -44 -50 -88 -56 -97 -5 -9 -23 -38 -38 -65 l-28 -48
0 -396 c1 -324 -2 -399 -13 -408 -9 -8 -80 -11 -232 -9 l-219 3 -5 405 -5 405
-56 95 c-31 52 -97 165 -147 250 -49 85 -99 171 -111 190 -11 19 -24 42 -28
50 -4 8 -22 38 -40 67 -18 29 -33 54 -33 57 0 2 -35 65 -79 138 -138 234 -221
380 -221 389 0 5 114 9 254 9 l253 0 154 -261z"/>
</g>
</svg>
